<svg width="100" height="100" viewBox="0 0 100 100" fill="none" xmlns="http://www.w3.org/2000/svg">
  <rect x="5" y="5" width="90" height="90" rx="12" fill="#7C3AED" fill-opacity="0.2" stroke="#A855F7" stroke-opacity="0.3" stroke-width="2"/>
  
  <g transform="translate(26, 26) scale(1.8)">
    <path d="M3 14h3a2 2 0 0 1 2 2v3a2 2 0 0 1-2 2H5a2 2 0 0 1-2-2v-7a9 9 0 0 1 18 0v7a2 2 0 0 1-2 2h-1a2 2 0 0 1-2-2v-3a2 2 0 0 1 2-2h3" stroke="#4ADE80" stroke-width="2" stroke-linecap="round" stroke-linejoin="round"/>
  </g>

  <circle cx="80" cy="20" r="16" fill="#A855F7"/>
  
  <path d="M76 14L88 20L76 26V14Z" fill="white"/>
</svg>